# xmcd CD database file
#
# Track frame offsets:
#	150
#	17009
#	35588
#	47247
#	60067
#	69563
#	86623
#	99263
#	110742
#	135801
#	146635
#
# Disc length: 2001 seconds
#
# Revision: 0
# Processed by: cddbd v1.4PL0 Copyright (c) Steve Scherf et al.
# Submitted via: CDex 1.40Release
#
DISCID=8a07cf0b
DTITLE=Hoochie Coochie Band - Album
DYEAR=1998
DGENRE=Blues
TTITLE0=Come On My Kitchen
TTITLE1=My Babe
TTITLE2=Dust My Broom
TTITLE3=Big Boat
TTITLE4=Please Don`t Go
TTITLE5=Money Is the Name Of the Game
TTITLE6=I Had a Date With Barbara Last Night
TTITLE7=Back Scratcher
TTITLE8=Bad Luck and Trouble
TTITLE9=Love In Vain
TTITLE10=Hoochie Coochie Man
EXTD=YEAR: 1998 ID3G: 0
EXTT0=
EXTT1=
EXTT2=
EXTT3=
EXTT4=
EXTT5=
EXTT6=
EXTT7=
EXTT8=
EXTT9=
EXTT10=
PLAYORDER=
